<mxfile host="app.diagrams.net" modified="2020-12-11T07:56:32.731Z" agent="5.0 (Windows NT 10.0; Win64; x64) AppleWebKit/537.36 (KHTML, like Gecko) Chrome/87.0.4280.88 Safari/537.36" etag="Iy0c6gSZwqbSVxYJbnGw" version="14.0.0" type="github">
  <diagram name="Page-1" id="74e2e168-ea6b-b213-b513-2b3c1d86103e">
    <mxGraphModel dx="1209" dy="637" grid="1" gridSize="10" guides="1" tooltips="1" connect="1" arrows="1" fold="1" page="1" pageScale="1" pageWidth="1100" pageHeight="850" background="#ffffff" math="0" shadow="0">
      <root>
        <mxCell id="0" />
        <mxCell id="1" parent="0" />
        <mxCell id="TaB2tY3miVvT_ikd37O2-1" value="" style="endArrow=classic;html=1;strokeWidth=2;fontStyle=1" edge="1" parent="1">
          <mxGeometry width="50" height="50" relative="1" as="geometry">
            <mxPoint x="130" y="244.5" as="sourcePoint" />
            <mxPoint x="170" y="244.5" as="targetPoint" />
          </mxGeometry>
        </mxCell>
        <mxCell id="TaB2tY3miVvT_ikd37O2-2" value="Đăng Nhập" style="ellipse;whiteSpace=wrap;html=1;strokeWidth=2;fillColor=#dae8fc;strokeColor=#6c8ebf;fontStyle=1" vertex="1" parent="1">
          <mxGeometry x="170" y="220" width="100" height="60" as="geometry" />
        </mxCell>
        <mxCell id="TaB2tY3miVvT_ikd37O2-4" value="Hợp Lệ" style="rhombus;whiteSpace=wrap;html=1;strokeWidth=2;fillColor=#dae8fc;strokeColor=#6c8ebf;fontStyle=1" vertex="1" parent="1">
          <mxGeometry x="310" y="220" width="80" height="50" as="geometry" />
        </mxCell>
        <mxCell id="TaB2tY3miVvT_ikd37O2-6" value="Trả Lời" style="ellipse;whiteSpace=wrap;html=1;strokeWidth=2;fillColor=#dae8fc;strokeColor=#6c8ebf;fontStyle=1" vertex="1" parent="1">
          <mxGeometry x="450" y="220" width="90" height="50" as="geometry" />
        </mxCell>
        <mxCell id="TaB2tY3miVvT_ikd37O2-8" value="Ảnh" style="ellipse;whiteSpace=wrap;html=1;strokeWidth=2;fillColor=#dae8fc;strokeColor=#6c8ebf;fontStyle=1" vertex="1" parent="1">
          <mxGeometry x="590" y="220" width="90" height="60" as="geometry" />
        </mxCell>
        <mxCell id="TaB2tY3miVvT_ikd37O2-10" value="Đủ Ảnh" style="rhombus;whiteSpace=wrap;html=1;strokeWidth=2;fillColor=#dae8fc;strokeColor=#6c8ebf;fontStyle=1" vertex="1" parent="1">
          <mxGeometry x="730" y="220" width="80" height="50" as="geometry" />
        </mxCell>
        <mxCell id="TaB2tY3miVvT_ikd37O2-12" value="Gửi Cho Bác Sĩ" style="ellipse;whiteSpace=wrap;html=1;strokeWidth=2;fillColor=#dae8fc;strokeColor=#6c8ebf;fontStyle=1" vertex="1" parent="1">
          <mxGeometry x="860" y="220" width="100" height="50" as="geometry" />
        </mxCell>
        <mxCell id="TaB2tY3miVvT_ikd37O2-26" style="edgeStyle=orthogonalEdgeStyle;rounded=0;orthogonalLoop=1;jettySize=auto;html=1;exitX=1;exitY=0;exitDx=0;exitDy=0;entryX=0.5;entryY=1;entryDx=0;entryDy=0;strokeWidth=2;fontColor=#0000FF;" edge="1" parent="1" source="TaB2tY3miVvT_ikd37O2-14" target="TaB2tY3miVvT_ikd37O2-4">
          <mxGeometry relative="1" as="geometry" />
        </mxCell>
        <mxCell id="TaB2tY3miVvT_ikd37O2-14" value="" style="shape=partialRectangle;whiteSpace=wrap;html=1;bottom=1;right=1;left=1;top=0;fillColor=none;routingCenterX=-0.5;strokeWidth=2;fontStyle=1" vertex="1" parent="1">
          <mxGeometry x="220" y="280" width="130" height="30" as="geometry" />
        </mxCell>
        <mxCell id="TaB2tY3miVvT_ikd37O2-17" value="No" style="text;html=1;strokeColor=none;fillColor=none;align=center;verticalAlign=middle;whiteSpace=wrap;rounded=0;fontStyle=1;fontColor=#FF0000;" vertex="1" parent="1">
          <mxGeometry x="310" y="290" width="40" height="20" as="geometry" />
        </mxCell>
        <mxCell id="TaB2tY3miVvT_ikd37O2-18" value="No" style="text;html=1;strokeColor=none;fillColor=none;align=center;verticalAlign=middle;whiteSpace=wrap;rounded=0;fontStyle=1;fontColor=#FF0000;" vertex="1" parent="1">
          <mxGeometry x="740" y="290" width="40" height="20" as="geometry" />
        </mxCell>
        <mxCell id="TaB2tY3miVvT_ikd37O2-19" value="Yes" style="text;html=1;strokeColor=none;fillColor=none;align=center;verticalAlign=middle;whiteSpace=wrap;rounded=0;fontColor=#0000FF;fontStyle=1" vertex="1" parent="1">
          <mxGeometry x="380" y="210" width="40" height="20" as="geometry" />
        </mxCell>
        <mxCell id="TaB2tY3miVvT_ikd37O2-20" value="Yes" style="text;html=1;strokeColor=none;fillColor=none;align=center;verticalAlign=middle;whiteSpace=wrap;rounded=0;fontColor=#0000FF;fontStyle=1" vertex="1" parent="1">
          <mxGeometry x="790" y="210" width="40" height="20" as="geometry" />
        </mxCell>
        <mxCell id="TaB2tY3miVvT_ikd37O2-37" style="edgeStyle=orthogonalEdgeStyle;rounded=0;orthogonalLoop=1;jettySize=auto;html=1;exitX=1;exitY=0;exitDx=0;exitDy=0;entryX=0.5;entryY=1;entryDx=0;entryDy=0;strokeWidth=2;fontColor=#0000FF;" edge="1" parent="1" source="TaB2tY3miVvT_ikd37O2-27" target="TaB2tY3miVvT_ikd37O2-10">
          <mxGeometry relative="1" as="geometry" />
        </mxCell>
        <mxCell id="TaB2tY3miVvT_ikd37O2-27" value="" style="shape=partialRectangle;whiteSpace=wrap;html=1;bottom=1;right=1;left=1;top=0;fillColor=none;routingCenterX=-0.5;strokeWidth=2;fontStyle=1" vertex="1" parent="1">
          <mxGeometry x="640" y="280" width="130" height="30" as="geometry" />
        </mxCell>
        <mxCell id="TaB2tY3miVvT_ikd37O2-38" value="" style="endArrow=classic;html=1;strokeWidth=2;fontColor=#0000FF;" edge="1" parent="1">
          <mxGeometry width="50" height="50" relative="1" as="geometry">
            <mxPoint x="270" y="244.5" as="sourcePoint" />
            <mxPoint x="310" y="245" as="targetPoint" />
          </mxGeometry>
        </mxCell>
        <mxCell id="TaB2tY3miVvT_ikd37O2-39" value="" style="endArrow=classic;html=1;strokeWidth=2;fontColor=#0000FF;" edge="1" parent="1">
          <mxGeometry width="50" height="50" relative="1" as="geometry">
            <mxPoint x="390" y="244.5" as="sourcePoint" />
            <mxPoint x="450" y="244.5" as="targetPoint" />
          </mxGeometry>
        </mxCell>
        <mxCell id="TaB2tY3miVvT_ikd37O2-40" value="" style="endArrow=classic;html=1;strokeWidth=2;fontColor=#0000FF;" edge="1" parent="1">
          <mxGeometry width="50" height="50" relative="1" as="geometry">
            <mxPoint x="540" y="244.5" as="sourcePoint" />
            <mxPoint x="590" y="245" as="targetPoint" />
          </mxGeometry>
        </mxCell>
        <mxCell id="TaB2tY3miVvT_ikd37O2-41" value="" style="endArrow=classic;html=1;strokeWidth=2;fontColor=#0000FF;" edge="1" parent="1">
          <mxGeometry width="50" height="50" relative="1" as="geometry">
            <mxPoint x="680" y="244.5" as="sourcePoint" />
            <mxPoint x="730" y="245" as="targetPoint" />
          </mxGeometry>
        </mxCell>
        <mxCell id="TaB2tY3miVvT_ikd37O2-42" value="" style="endArrow=classic;html=1;strokeWidth=2;fontColor=#0000FF;" edge="1" parent="1">
          <mxGeometry width="50" height="50" relative="1" as="geometry">
            <mxPoint x="810" y="244.5" as="sourcePoint" />
            <mxPoint x="860" y="244.5" as="targetPoint" />
          </mxGeometry>
        </mxCell>
      </root>
    </mxGraphModel>
  </diagram>
</mxfile>
